<svg id="Objects" xmlns="http://www.w3.org/2000/svg" viewBox="0 0 44.8215 44.9332"><title>rekry_logo_min</title><g id="logo"><g id="_Группа_" data-name="&lt;Группа&gt;"><path id="_Контур_" data-name="&lt;Контур&gt;" d="M32.6784,12.17749l.2902.09281L27.716,17.523a7.35374,7.35374,0,0,0-.734-.9452c-.0199-.0219-.0388-.0418-.0561-.0607l5.5219-5.2791a2.54119,2.54119,0,0,1,.1597.84l-.002.076Z" style="fill:#6e7074"/><path id="_Контур_2" data-name="&lt;Контур&gt;" d="M34.0734,11.16549l-.23.23011a7.09451,7.09451,0,0,0-.732-.7922l.2046-.1953A.7711.7711,0,0,1,34.0734,11.16549Z" style="fill:#6e7074"/><path id="_Контур_3" data-name="&lt;Контур&gt;" d="M36.5926,14.6044a6.07177,6.07177,0,0,1-4.3911,2.3295c-.0434,0-.0867-.001-.1301-.0021a2.10214,2.10214,0,0,0,.558-1.37s2.0485-.7518.8268-3.242l-.4065-.1306-.3402-.1091a2.62655,2.62655,0,0,0-.1811-.9192,2.08292,2.08292,0,0,0-.6789-.9176l.2209-.3621a9.26386,9.26386,0,0,1,.9666.7937,7.01818,7.01818,0,0,1,.734.7931c.0765.0984.1489.1994.2162.302C34.6641,12.8039,35.5424,14.2341,36.5926,14.6044Z" style="fill:#6e7074"/></g><g id="_Группа_2" data-name="&lt;Группа&gt;"><path id="_Контур_4" data-name="&lt;Контур&gt;" d="M10.9807,11.3956l-.2413-.2413a.81689.81689,0,0,1,.7575-.7574l.2163.206A7.01415,7.01415,0,0,0,10.9807,11.3956Z" style="fill:#6e7074"/><path id="_Контур_5" data-name="&lt;Контур&gt;" d="M16.8643,15.5098c-.2622.1739-.4881.3478-.607.44269-.0892-.13159-.2708-.41769-.434-.68249l-.0383-.0867-.0036-.0081-.001-.0011-.052-.1178-.1617-.3631-.0332.39629a6.64759,6.64759,0,0,1-.1106.74821l-3.5674-3.5674.2902-.09281.0729-.02349-.002-.076a2.56057,2.56057,0,0,1,.1612-.8416Z" style="fill:#6e7074"/><path id="_Контур_6" data-name="&lt;Контур&gt;" d="M12.2967,11.1589a2.62406,2.62406,0,0,0-.1821.9212l-.3402.1091-.4066.1306c-1.2216,2.4902.8269,3.242.8269,3.242a2.10147,2.10147,0,0,0,.5585,1.37c-.0439.0011-.0872.0021-.1301.0021a6.07239,6.07239,0,0,1-4.3917-2.3295c1.0503-.3703,1.9286-1.8005,2.6055-2.8344.0673-.1026.1397-.2036.2162-.302a7.004,7.004,0,0,1,.735-.7942,9.27976,9.27976,0,0,1,.9661-.7926l.2203.3621A2.08355,2.08355,0,0,0,12.2967,11.1589Z" style="fill:#6e7074"/></g><g id="_Группа_3" data-name="&lt;Группа&gt;"><path id="_Контур_7" data-name="&lt;Контур&gt;" d="M18.166,26.6746c.1326.12189.2627.2331.3928.3351l-2.2097,2.1295a3.64935,3.64935,0,0,1-.7508-.5865l2.2887-2.1581C17.9793,26.49349,18.0727,26.5869,18.166,26.6746Z" style="fill:#6e7074"/><path id="_Контур_8" data-name="&lt;Контур&gt;" d="M17.5876,26.0513c.0734.0898.1479.1765.2224.2596L15.5208,28.47a3.82591,3.82591,0,0,1-.4871-.6931l2.2392-2.1581.0209.0301.0092.0142C17.3917,25.7947,17.4871,25.9253,17.5876,26.0513Z" style="fill:#6e7074"/><path id="_Контур_9" data-name="&lt;Контур&gt;" d="M16.8801,29.6121l-.4198.405a.02972.02972,0,0,1-.0209.0025,4.25313,4.25313,0,0,1-1.0471-.6488l-.0026-.002-.0005-.0005-.0194-.0164-.0041-.0035-.0102-.0092c-.1004-.08571-.1999-.1806-.2958-.2795-.0974-.1015-.1897-.2076-.2759-.3158l-.0072-.0086-.0132-.0174-.0006-.0005a4.22572,4.22572,0,0,1-.6115-1.0721.03178.03178,0,0,1,.003-.0194l.4208-.4055.0495.0954c.0663.1285.149.2876.2326.4391l.0077.0133.0147.0255.0021.0036a3.63557,3.63557,0,0,0,1.4363,1.4904l.0026.0015.0061.0041.025.0148.0143.0086c.1408.0852.2861.16679.43.2479Z" style="fill:#6e7074"/><path id="_Контур_10" data-name="&lt;Контур&gt;" d="M15.2408,29.4274l-1.7786,1.5338a2.29224,2.29224,0,0,0-.174-.202,2.24084,2.24084,0,0,0-.1938-.1811l1.5981-1.7199A4.41212,4.41212,0,0,0,15.2408,29.4274Z" style="fill:#6e7074"/><path id="_Контур_11" data-name="&lt;Контур&gt;" d="M13.6897,31.6641l-.2796.2693c-.0147-.0327-.03-.0648-.0464-.099a2.455,2.455,0,0,0-.4636-.7044,2.82528,2.82528,0,0,0-.6723-.4743c-.0372-.0199-.0739-.0403-.1102-.06021l.2816-.27139a.04129.04129,0,0,1,.0316-.0041,2.445,2.445,0,0,1,.9447.7473l.001.0015.0005.0005a2.4564,2.4564,0,0,1,.3183.5621A.04377.04377,0,0,1,13.6897,31.6641Z" style="fill:#6e7074"/><path id="_Контур_12" data-name="&lt;Контур&gt;" d="M12.8062,31.22749a2.14021,2.14021,0,0,1,.3984.59061c-.1811.1183-.4366-.0887-.4397-.0913l-.0291-.025a.02633.02633,0,0,0-.0341.001l-.0276.0266c-.1448.1397-.3657.0326-.3973.0163a.35686.35686,0,0,1,.0301-.3969l.0275-.0265a.02583.02583,0,0,0,.0021-.0342l-.0235-.03061c-.0209-.028-.1943-.27339-.0755-.44119A2.46676,2.46676,0,0,1,12.8062,31.22749Z" style="fill:#6e7074"/></g><g id="_Группа_4" data-name="&lt;Группа&gt;"><path id="_Контур_13" data-name="&lt;Контур&gt;" d="M29.3043,28.6276a3.65628,3.65628,0,0,1-.7508.5866l-2.3279-2.24271a6.773,6.773,0,0,0,.6926-.59429Z" style="fill:#6e7074"/><path id="_Контур_14" data-name="&lt;Контур&gt;" d="M29.8695,27.8523a3.899,3.899,0,0,1-.4877.69319l-2.383-2.24779c.0505-.051.1005-.1031.1495-.1556.1341-.1464.2626-.2989.382-.4545.0133-.0173.027-.0347.0393-.052Z" style="fill:#6e7074"/><path id="_Контур_15" data-name="&lt;Контур&gt;" d="M30.7514,27.7202a4.205,4.205,0,0,1-.6101,1.0702l-.002.003-.0133.0168-.0071.0087c-.0857.1082-.1785.2142-.276.3152-.0959.0995-.1953.19439-.2958.2806l-.0102.0086-.0015.0016-.0225.0189-.0025.002a4.24745,4.24745,0,0,1-1.0472.6488.02964.02964,0,0,1-.0199-.002l-.4208-.4055.0888-.05c.1397-.0791.2846-.1607.4249-.2454l.0147-.0086.023-.0143.0082-.0046.0025-.0015a3.64446,3.64446,0,0,0,1.4364-1.4905l.002-.0035.0148-.026.0076-.0133v-.0005c.0842-.1515.1663-.3101.2331-.4382l.049-.0959.4208.4061A.03163.03163,0,0,1,30.7514,27.7202Z" style="fill:#6e7074"/><path id="_Контур_16" data-name="&lt;Контур&gt;" d="M30.2102,28.9327l1.5975,1.7204a2.49538,2.49538,0,0,0-.1933.1811,2.31021,2.31021,0,0,0-.1739.202l-1.7786-1.5338A4.4595,4.4595,0,0,0,30.2102,28.9327Z" style="fill:#6e7074"/><path id="_Контур_17" data-name="&lt;Контур&gt;" d="M32.7855,30.67049l-.1107.06011a2.82482,2.82482,0,0,0-.6717.47389,2.452,2.452,0,0,0-.4642.70491c-.0158.0332-.0321.0678-.0459.0995l-.28-.2699a.04307.04307,0,0,1-.0056-.0326,2.47571,2.47571,0,0,1,.3188-.5626l.001-.001a2.43527,2.43527,0,0,1,.9451-.7478l.0092-.00151a.0423.0423,0,0,1,.0225.00561Z" style="fill:#6e7074"/><path id="_Контур_18" data-name="&lt;Контур&gt;" d="M32.5958,31.4238a.35613.35613,0,0,1,.0301.3963.36113.36113,0,0,1-.3974-.0158l-.0275-.0265a.02513.02513,0,0,0-.0342-.001l-.0296.025c-.0025.0025-.2586.2101-.4391.0908a2.1345,2.1345,0,0,1,.3988-.5902,2.45269,2.45269,0,0,1,.5682-.4116c.1189.1688-.054.41369-.0755.4422l-.0234.0301a.02523.02523,0,0,0,.0025.0342Z" style="fill:#6e7074"/></g><path id="_Составной_контур_" data-name="&lt;Составной контур&gt;" d="M34.687,20.6436l-1.8163-.3163-4.2162-.7355q.0153.055.0306.1133c.0306.1163.0566.22439.0796.3295l.002.0122.0056.0275,13.3984,2.33719H28.8753l-.0015.01271-.002.0174-.0026.0193c-.0076.0592-.0153.1199-.0245.18059-.0056.03161-.0112.06331-.0173.09441l-.0168.0948-.0092.0511c-.0082.0459-.0168.0928-.0296.1412l-.0255.1087-.0179.076-.0066.0296c-.0051.0219-.0102.0438-.0163.0678l-.0265.0918a6.78131,6.78131,0,0,1-.5958,1.4532c-.0173.0311-.0357.0627-.0541.0938-.0856.1485-.1805.2974-.282.4448l5.3577-.9339,8.9894-1.5674,2.7273-.47591Zm-9.2964,6.85989-.0016.001-.002.001-.2708.13671-.0021.001-.0025.001-.0949.0419-.0117.0051-.0128.0056-.0627.028-.884,5.0696-1.6352,9.377V28.2798l-.1021.0025-.051.0011h-.0051l-.0499-.0021-.2071-.0051-.051-.002-.0276-.001-.0336-.0026h-.0041l-.0964-.0077-.0949-.0081-.0469-.0036-.0245-.002h-.0036l-.003-.0005-.0255-.0036-.0602-.0077c-.1219-.0153-.2484-.0311-.3673-.0561l-.102-.0183-.051-.0097-.0015-.0005-.0021-.0005-.0515-.01181-.2025-.04839c-.0515-.0128-.102-.02761-.1505-.0418l-.0545-.0159-.1015-.0295c-.0352-.0108-.0699-.0235-.1005-.0347-.0786-.026-.1423-.048-.2-.0694l-.0015-.0005-.0015-.0005-.1923-.0775c-.0265-.0097-.051-.0204-.0745-.0312l-.027-.0117-.048-.02191-.0484-.02249-.0612-.02851c-.0434-.01939-.0883-.03979-.1306-.06329l-.1515-.0796,3.0079,17.2581,1.7673-10.1345h.0011L24.4903,32.9l.0046-.0276.0128-.0745.9278-5.31941C25.4202,27.4866,25.4054,27.4948,25.3906,27.50349Zm-2.9793-5.092v.001h.001v-.001Zm2.6217-7.373-.5381-3.087-.3173-1.81629L22.4103.0012,19.9227,14.2759c.0398-.0066.0785-.0138.1173-.0199.0994-.0173.2061-.0331.3249-.0479l.0311-.00361L22.4103,2.653V14.2009l.0142.00259h.0006c.1305.01681.2662.03471.3947.06071.15.025.3005.0612.4463.0964l.1087.026.0025.0005.0026.0005.077.0225c.0658.0193.1326.0382.1984.0576l.0704.0204.0026.0005.0025.001.0699.024c.0444.0163.0908.0316.1377.0474.2239.0796.4438.1684.6534.2637.1265.0582.2397.1143.3463.1709.0327.01689.0648.0347.0965.052Zm-8.1355,9.933L16.897,24.971l-.0077-.0153c-.0112-.0225-.0224-.0449-.0331-.0673l-4.3892-.7651L2.6508,22.41149H16.2711V22.3686c0-.05611.0015-.1173.0046-.1856l.0025-.1036v-.0025l.0006-.0026v-.0051l.0015-.0296.002-.0244.0036-.0495.0082-.0964.0035-.0485v-.002l.0005-.0021.0016-.0153c.001-.0122.002-.0244.004-.0357l.0276-.2137c.0041-.0311.0087-.0607.0138-.0908l.002-.01071.0026-.01529.001-.0025.0168-.0939.0189-.102.0005-.0021.0005-.0025.0602-.2535.0005-.0015.0005-.0016.0143-.0515.0581-.2004.0005-.0026.0011-.002.0678-.1979a5.09388,5.09388,0,0,1,.2841-.6529c.0551-.1076.1178-.21781.1908-.3362h-.0005l.0148-.0224.0275-.0428.0275-.0429L10.922,20.5069l-.788.1377L0,22.41149,10.135,24.1799l1.8153.3157,5.1818.9043-.0281-.04641C17.025,25.2189,16.9571,25.0939,16.8975,24.97149Z" style="fill:#6e7074"/><path id="logo-2" data-name="logo" d="M20.4985,15.4534h0m.9192-1.2117a8.03266,8.03266,0,0,0-1.0395.0674c-.1082.0137-.2158.029-.3204.04739-.052.00821-.103.01741-.154.02651h-.001c-.0337.0062-.0684.0128-.102.0199a8.04887,8.04887,0,0,0-1.0023.2704q-.3015.10245-.5728.2208c-.0418.0168-.0837.0352-.1245.0526l-.0449.0193c-.0234.0118-.0484.02149-.0719.0337l-.002.0005c-.0301.0148-.0592.0296-.0883.0429l-.0137.0066c-.101.05-.201.0954-.2933.1494-.0985.0536-.1923.1056-.2831.1556-.0148.0092-.0281.0184-.0429.0265l-.0071.0046-.0046.0026-.002.001c-.0684.0428-.1357.0836-.1995.125-.0316.0198-.0627.0382-.0928.05809l-.0148.00921-.0097-.0087.0072.0102-.0108.0077a8.38563,8.38563,0,0,0-.686.5065h-.0005c-.0265,0-.508-.77991-.508-.77991l-.0408-.09289-.0021-.003v-.0005l-.0545-.123a6.80208,6.80208,0,0,1-.126.8258q-.03375.16155-.0745.3255c-.0306.1249-.0648.2494-.1.3754v.0005a14.09013,14.09013,0,0,1-.4927,1.4169c-.0847.2066-.1724.4061-.2596.5948h-.001c-.0138.0301-.0281.0592-.0419.0882.0225-.0102.0454-.0199.0689-.0301l.0066-.0025c.0337-.0148.0674-.0296.102-.0439.2224-.0938.4581-.1857.7034-.2724.3367-.1203.6901-.2315,1.0431-.3259l.0163-.0046c.073-.0194.1464-.0382.2193-.0566a7.92383,7.92383,0,0,1,1.4828-.2408h.0031l-.1265-.0617s-.8376-.4718-.8376-.4835c.0776-.0638.1658-.1342.2607-.21171.0546-.03979.1112-.08109.1714-.12339.0301-.022.0602-.0449.0918-.0679.0301-.0214.0637-.0418.0974-.0642.0337-.022.0673-.0449.103-.0679.0337-.0224.0694-.0454.1046-.0683.0168-.0087.0332-.0189.0495-.0281.0163-.01021.0336-.0199.05-.0291.0311-.0183.0622-.0362.0938-.0555.0118-.0062.024-.0138.0367-.021.0781-.0484.1648-.0872.2505-.1331.0428-.0219.0872-.0454.1321-.0683.0454-.0199.0918-.0408.1382-.0618l.0199-.0091c.0877-.03931.1785-.0776.2719-.1158.0291-.0117.0591-.02351.0898-.0347.0209-.0082.0428-.0153.0637-.0235q.03825-.0153.0796-.029c.101-.0368.2066-.0715.3152-.1031h.0005c.052-.0153.1041-.0301.1576-.0449v-.0005c.0378-.0102.076-.0204.1143-.0301.0581-.0158.1183-.0301.179-.0438l.0332-.0072c.0392-.0081.079-.0163.1193-.025.0189-.004.0383-.0081.0582-.01171.0316-.00609.0637-.01169.0964-.01729.0265-.0051.054-.00971.08-.0133l.0194-.0041h.0026l.0163-.0025c.0265-.0046.0541-.0082.0806-.01181.0398-.00659.0811-.01169.1219-.01629.0326-.0046.0648-.0081.0974-.01271.0327-.00359.0658-.00669.0985-.01019l.0229-.0021h.0041c.0301-.0035.0612-.0061.0923-.0081l.0097-.0005c.0459-.0046.0923-.0077.1388-.0103l.0056-.0005.0035.0005c.0556-.0035.1117-.0066.1684-.0081h.0066c.0153-.001.0306-.001.0474-.001.0551-.0016.1117-.0026.1683-.0026.0363,0,.073,0,.1092.001h.1204l.0301.0016.0602.0046c.0397.002.0811.0035.1219.0066.0403.0025.0811.00509.1203.00709.0873.01181.174.01891.2648.03111h.001c.053.0062.1056.0143.1622.0245.1505.0199.2999.0561.4539.0883.0373.0102.0755.0199.1128.03009.0382.01021.0765.01991.1137.03011l.0587.0153.0561.0183c.0382.0118.0755.0245.1137.0362.0765.0255.153.05209.229.0806a5.82275,5.82275,0,0,1,.682.30049c.1479.07751.2933.16111.4376.25141.0209.0128.0408.0265.0618.0398.0489.0321.0984.06479.1468.0984.049.0332.0975.06739.1454.1031.0286.0199.0566.0408.0842.0617.027.0219.0551.0439.0836.0658l.0046.0036h.001c.0245.0193.049.03919.0725.0581.0285.024.0576.0469.0857.0714.0311.0255.0622.0526.0923.0791.0234.0209.0474.0418.0709.0648.0301.0265.0592.0535.0892.0821.0255.0224.05.0474.0745.0709q.0261.02445.052.052c.0092.0082.0174.0174.0255.0255.0332.0316.0638.0648.0959.0974.0097.0108.0209.022.0306.0337.0312.0316.0613.0648.0893.0984.0342.0352.0658.073.0979.1102.0062.0082.0133.0153.0199.0245.0317.0372.0638.0765.0949.1148.0627.0775.1229.156.1811.2377.0194.0255.0372.051.0556.0775.0336.0484.0673.0974.0999.1469.024.03619.0475.0724.0704.1091.0199.0317.0393.0638.0592.0954.0189.0322.0383.0638.0566.0969l.0005.0005c.0215.0368.0413.0725.0612.1087l.0072.0138q.02745.0474.052.0964a.18424.18424,0,0,1,.0163.0311c.0169.0301.0322.0617.0475.0928a.1565.1565,0,0,1,.0112.0219c.0173.0337.0336.0684.0489.1031.0245.05149.0495.10349.0709.1566.0103.02189.0205.0438.0296.0663v.001l.0087.0219q.0168.03825.0321.0765l.0245.06119.001.00161c.0102.0255.0199.052.0291.0785l.0301.0837c.0138.03719.0276.0744.0403.1127l.0046.0148.0143.0428v.0011l.0194.0601c.0071.021.0132.0429.0199.0643.0071.023.0137.0459.0198.06939.0092.02751.0164.05561.024.08361.0036.0102.0051.02039.0082.0301.0092.0337.0178.0674.027.102l.0117.0495c.0077.0311.0148.0617.0215.0929.0209.0913.0387.1831.0551.27489.0086.05051.0183.10051.0239.14891.0102.0633.0199.126.026.1898.0041.0234.0077.0469.0097.07029l.0051.05561c.0031.0255.0046.05.0067.075.0071.0699.0117.1408.0153.2112l.001.0138.001.0173c.0015.0383.0026.0765.0046.1153v.0265c.0015.0291.0015.0582.0015.0877.0021.0765.001.15359-.001.22959v.04641l-.0005.0209-.0056.0862c-.0026.0576-.0066.1148-.0102.1724-.001.03109-.0046.053-.0072.0785l-.0081.0745-.0026.02809v.001l-.0137.12141c-.0082.0515-.0164.1035-.0255.15659-.0092.052-.0148.10451-.0276.15661l-.0326.1555-.0164.0786-.0209.0775a5.58009,5.58009,0,0,1-.4646,1.2094,5.44222,5.44222,0,0,1-.279.4703l-.049.0729h-.001c-.0153.0235-.0317.0474-.048.0709-.0347.05-.0959.1459-.0959.1459-.0658.0836-.1341.1658-.204.2458-.0107.0128-.0219.0245-.0326.0362l-.0011.0011-.0148.0158-.0035.0046-.0225.026c-.0112.0127-.0219.025-.0331.0367l-.001.001c-.0551.0607-.1117.1209-.1694.1791l-.001.001a5.52339,5.52339,0,0,1-.4295.3943l-.001.002c-.024.0194-.0464.0383-.0704.0566-.0347.0281-.0688.0556-.1045.0816-.0648.0505-.1322.0995-.1995.1459-.052.03369-.1035.0694-.1561.1041l-.0418.0275c-.0382.0255-.0785.048-.1183.0714-.0398.023-.0791.0469-.1184.0704l-.0199.0107-.0749.0403-.0572.0301-.076.0408-.078.0367-.1561.0735c-.0525.024-.1056.0449-.1591.0678-.0536.02139-.1056.04439-.1612.0628l-.1632.0591c-.0271.0097-.0546.0184-.0827.0266l-.0831.0255-.0974.0301-.0694.0188-.1693.0418c-.0566.0159-.1138.0256-.1714.0368l-.1709.0347-.1739.0255-.0867.01169c-.0291.00461-.0582.00611-.0883.00921l-.1749.0163c-.0495.0046-.0974.0051-.1469.0071h-.001l-.0281.0011-.0882.0045-.0439.0016h-.0444l-.177-.0016h-.079l-.0949-.0066-.0954-.0051-.0484-.003-.024-.0016-.0209-.002c-.1107-.0138-.2214-.02191-.3387-.04391l-.0872-.01319-.0439-.0077-.0428-.0092-.173-.0372c-.0576-.0128-.1142-.0301-.1713-.0444l-.0857-.0219c-.0281-.0082-.0566-.01841-.0847-.0276l-.1693-.0545-.1658-.0618c-.0556-.0204-.1097-.0459-.1643-.0683-.0545-.025-.1101-.0459-.1627-.0729l-.0239-.0118h-.0011l-.079-.0403-.0556-.0275-.0235-.0128c-.0255-.0132-.051-.028-.0765-.0418-.0184-.0107-.0377-.0219-.0556-.0316-.0265-.0148-.053-.0286-.0785-.0439l-.0755-.0474c-.0464-.0291-.0939-.0556-.1388-.08621l-.0127-.00919c-.05-.0332-.099-.0673-.1484-.102l-.0006-.001-.0086-.0067h-.0005v-.0005c-.1413-.102-.278-.2132-.4101-.329a5.21366,5.21366,0,0,1-.4499-.458c-.0184-.0194-.0357-.0393-.052-.0587-.0317-.0382-.0638-.0775-.0949-.1173-.0908-.1147-.1775-.2341-.2576-.357h-.001l-.0372-.0577a.26559.26559,0,0,1-.0194-.0301v-.0005l-.0153-.0219a5.64522,5.64522,0,0,1-.3387-.6406,5.55682,5.55682,0,0,1-.2397-.6657l-.0057-.0183c-.0107-.0383-.0209-.0776-.03-.11581-.0082-.03269-.0164-.06529-.0235-.09849-.0056-.0234-.0112-.0469-.0163-.0719-.0113-.0474-.0204-.0954-.0291-.1438-.0082-.0444-.0168-.0883-.024-.1332l-.0025-.0178c-.0056-.0367-.0113-.0729-.0158-.1097l-.0051-.0408c-.0057-.0454-.0113-.09131-.0159-.1367-.0096-.0974-.0163-.1958-.0198-.2943l-.0011-.0081v-.0026c-.0015-.0194-.0015-.0382-.0025-.05761-.0021-.05459-.0021-.11019-.0021-.16579,0-.0383,0-.0765.0011-.1137v-.1082l.002-.0209.0026-.0505L17.1,21.856l.0025-.049.0036-.0459.0194-.1739c.0025-.028.0071-.0581.0127-.0872l.0138-.0903.0132-.0903.0205-.0872.0178-.0893.0102-.0438.0107-.0439.0469-.1749.0546-.173c.0163-.0489.0337-.0984.052-.1469l.0179-.04991c.0112-.02909.023-.05919.0357-.08829.0301-.0739.0617-.1469.0964-.2188.0158-.0327.0311-.0653.0485-.09791l.0071-.01479c.0138-.0276.0276-.0536.0418-.0801.0383-.073.0796-.1449.123-.2153l.0112-.01781c.0097-.01739.0199-.03369.0311-.05049a.21961.21961,0,0,1,.0153-.02451c.0199-.03369.0428-.06729.0653-.1l.0046-.00759.0127-.0179c.022-.0336.0459-.0668.0704-.0994.0107-.0164.023-.0316.0347-.0485l.0046-.0061h.0005l.0127-.0173c.0403-.0531.0806-.1056.125-.1566l.001-.0011.0026-.00351c.025-.03109.0505-.06229.076-.09179.0224-.0255.0454-.0521.0688-.0776l.0057-.00661c.0219-.02239.0428-.04539.0647-.06829.0363-.0393.0745-.0776.1128-.1148l.0045-.0046c.0409-.0408.0837-.0811.1265-.1199.0439-.0393.0878-.0785.1332-.1168l.0183-.0148c.0352-.0301.0709-.0581.1077-.0872.0525-.0408.1071-.0821.1617-.1214.0474-.0336.0948-.0653.1433-.0974l.0107-.0072.0484-.03h.0011c.0245-.0154.0479-.0312.0729-.0465.0306-.0188.0627-.0372.0944-.0556.0367-.0219.0739-.0428.1112-.0627.0448-.0245.0892-.0485.1346-.0709.0322-.0168.0648-.0321.0969-.0464h.0011c.0198-.0102.0397-.0194.0607-.0286.0346-.0163.0693-.0311.105-.0454h.0005q.1974-.0834.4009-.1484a4.30187,4.30187,0,0,1,.6963-.1612l.0882-.0138c.0291-.0035.0582-.00811.0883-.0102l.1775-.0173c.0591-.00461.1183-.0051.178-.0082.0296-.0015.0597-.0035.0892-.0035l.0893.001.0893.001h.0433l.0174.0005.0229.001.1877.0118.1694.0194c.028.002.0581.0071.0867.0117l.0852.0148h.002a4.287,4.287,0,0,1,.6789.1754,4.20849,4.20849,0,0,1,1.2114.6754c.0429.0352.0857.0709.1275.10809.0225.02041.0454.04031.0684.06021.0153.01479.0301.028.0443.04279.022.021.0439.04191.0658.06381.0291.0275.0572.0556.0847.0837.0281.02849.0546.0576.0811.0867l.0036.0035c.0209.023.0408.0454.0612.0684.026.029.051.0581.0755.0882.0326.0393.0648.0796.0954.1194l.0137.01829q.05055.06586.0964.13321l.0041.0046c.0316.0454.0628.0928.0929.14019.0137.02091.027.04291.0397.06481v.0005a.1994.1994,0,0,1,.0158.025q.0246.0405.049.0826c.0128.022.0255.0449.0373.0674.0158.0265.03.053.0438.08.0485.0913.0929.1842.1342.279a3.98614,3.98614,0,0,1,.1729.4836c.0153.052.0291.104.0428.15609.0291.10711.049.21731.0709.32691.0072.0556.0158.1102.023.1658l.0061.0408.0036.0418.0086.0832c.0118.1382.0189.2749.0169.4131v.01739c.002.10151-.0016.20141-.0087.30351-.0031.0591-.0092.1101-.0158.1632l-.0082.079-.0056.03729c-.0025.01481-.0041.02961-.0071.04381-.0143.1077-.0393.2143-.0628.3188a3.70534,3.70534,0,0,1-.205.6111,3.9543,3.9543,0,0,1-.2994.5621l-.024.0357.0117.0071-.0015.0021a3.99126,3.99126,0,0,1-.2943.3642l-.0102.0117-.0071.0076-.0026.0036c-.0648.0709-.1321.13819-.2015.203-.0275.0255-.0545.05-.0831.075l-.0005.0005a3.82036,3.82036,0,0,1-.6616.4682c-.0199.0113-.0398.023-.0612.0332a3.72783,3.72783,0,0,1-.4871.21729c-.0474.01681-.0928.03571-.1413.04951-.0474.0142-.0949.028-.1418.0428-.0959.0245-.1913.051-.2882.0673-.0954.022-.1928.0327-.2897.0475-.0336.0025-.0663.0061-.1.0092-.0244.0025-.0499.0045-.0749.0061-.0383.0035-.0765.00559-.1148.00659-.0449.00261-.0898.00361-.1342.00361-.0515,0-.1025-.001-.1535-.001-.0484-.00261-.0964-.0062-.1438-.0082-.051-.002-.0949-.0092-.1423-.0138a3.57873,3.57873,0,0,1-.5483-.1081,3.76642,3.76642,0,0,1-.3862-.1357c-.0301-.0122-.0602-.0255-.0892-.0382l-.0393-.0174a3.55828,3.55828,0,0,1-.6922-.43l-.0056-.0035c-.0627-.0505-.1239-.1031-.1821-.1571a3.38782,3.38782,0,0,1-.3524-.3744c-.0485-.05721-.0929-.1184-.1367-.1791l-.0148-.0214c-.0245-.0336-.0464-.0688-.0699-.1035l-.0337-.0521-.0321-.053a3.4095,3.4095,0,0,1-.2795-.5856q-.0558-.1476-.0964-.2958a3.46144,3.46144,0,0,1-.1102-.61971c-.003-.02809-.0046-.05559-.0066-.08369a3.23892,3.23892,0,0,1-.0051-.3305c-.001.0173-.0021.0347-.0021.052a3.24819,3.24819,0,0,1,.0964-.8166,3.20449,3.20449,0,0,1,.1832-.5264l.0045-.0092.0184-.03461c.0235-.04439.049-.08929.0755-.13159l.0163-.0276c.0184-.0301.0367-.0592.0556-.0872.0138-.0214.0286-.0423.0429-.0633.05-.0729.103-.1428.1576-.2091.0173-.0219.0367-.0439.0535-.0658.0194-.0209.0378-.0418.0566-.0627.0373-.0413.0755-.0811.1148-.1184.0658-.0647.1321-.1259.1995-.1826a3.2053,3.2053,0,0,1,.5712-.3789c.0291-.0153.0577-.0291.0867-.0424.0199-.0112.0408-.02041.0607-.0296l.0164-.0071.0382-.0173a.35658.35658,0,0,1,.0388-.01641l.0479-.01989c.0163-.0076.0322-.0127.0475-.0193l.0372-.01381c.0245-.00969.0484-.01679.0719-.02549.0265-.0087.0541-.0179.0796-.02551.0398-.01279.078-.02349.1158-.03369l.0362-.0092.0163-.004.0566-.0138c.0311-.0077.0607-.0138.0908-.0204.0602-.0118.1158-.0214.1699-.0291.0387-.0061.077-.0097.1127-.0143.1086-.0117.1984-.0163.2688-.0183l.0587-.0011c.0351,0,.0637.0011.0851.0011h.0485s-.0163,0-.0485-.0021c-.0285,0-.0698-.0025-.1234-.0025h-.0204a3.224,3.224,0,0,0-.555.05c-.0265.0045-.0525.0102-.0811.0158l-.0683.0143c-.0255.0056-.0515.0117-.078.01929-.0276.00621-.0546.01381-.0822.022-.029.00811-.0591.01731-.0902.027-.0266.00821-.0526.01741-.0801.02751-.0118.0036-.023.0072-.0347.0118h-.001a3.19763,3.19763,0,0,0-.3387.1428c-.0245.0122-.05.0255-.0745.0383l-.076.0413-.0637.0362c-.0817.0484-.1648.102-.2474.1622-.025.0173-.0495.0357-.073.0535-.0199.0148-.0382.0296-.0566.0439l-.0138.0117-.0071.0056h-.001c-.0225.0184-.0454.0373-.0673.0577-.022.0178-.0439.0372-.0648.0571l-.001.001c-.0388.0347-.0781.072-.1153.1102l-.0378.0383c-.0132.0148-.027.029-.0408.0438l-.0092.0097c-.0081.0077-.0153.0158-.0224.024a3.19639,3.19639,0,0,0-.2698.3417c-.023.03269-.0449.0653-.0648.099l-.0107.0173H18.95l-.0026.0046c-.0255.04079-.051.0832-.076.1255a3.23166,3.23166,0,0,0-.304.7381,3.37531,3.37531,0,0,0-.1193.8997l.0035.1046.0026.04489c0,.01371.001.02751.002.04131l.0021.0245c.0015.0301.004.0591.0081.08919.0036.03371.0072.06841.0118.102s.0091.06841.0142.10211c.0113.0683.024.1356.0383.204.0076.0347.0158.0694.024.1045.0173.0658.0357.1322.0566.198.0097.0336.0209.0663.0326.09939.0107.03271.023.06531.0357.09791.0087.025.0179.0495.0281.074l.0046.0102.0092.0235a.45045.45045,0,0,0,.0173.0428l.0087.022c.0102.0234.0204.0474.0311.0703l.0036.0072.0076.0163.0015.0046.0011.001.0091.0189c.0164.0372.0347.0739.0536.1102.023.0438.0464.0877.0714.131l.0316.0556.0347.0556c.0235.0368.0454.075.0699.1102l.0204.0286v.001c.0428.0627.0862.1245.1347.1846a3.5709,3.5709,0,0,0,.3606.401c.0673.0652.1387.12849.2122.1892.0275.0229.0545.0449.0831.0658q.03825.02835.0765.0581l.0082.0056.0382.0276a.40238.40238,0,0,0,.0393.027c.0301.0209.0602.0408.0903.06119.0362.02351.0724.04641.1091.06841l.0235.0132q.03975.02385.0796.0459c.0173.0097.0341.0199.0525.0291.0337.01839.0684.0362.103.0536.0184.0081.0357.0173.0536.0245.0383.01829.0765.0357.1158.052h.001l.0056.003c.0526.0225.1066.0444.1612.06429l.0189.00771.0673.0245.0066.002q.05895.02.1194.0382h.001c.0444.0143.0893.0271.1347.0388.0428.0123.0857.0219.1285.0321l.0138.0026.0035.001.0067.0015.0051.0011c.0443.0102.0892.0193.1346.02649.0495.00921.0995.01731.1505.024.05.00611.103.01421.1505.01781.05.0036.0999.0077.1499.0117.0755.0016.152.0057.2285.0057.026,0,.0516-.0006.0776-.0016.0301,0,.0602-.001.0913-.003.0387-.0011.0775-.00361.1183-.0062l.1255-.0107c.0943-.0112.1897-.0219.2846-.0392.1035-.0169.2066-.0424.3086-.0658.052-.0148.103-.0281.154-.0429.0521-.01381.102-.0326.152-.0489a4.07346,4.07346,0,0,0,.5948-.2561l.0046-.0031c.0448-.0234.0902-.0489.1341-.0744l.0082-.0056.0219-.0128c.0393-.0224.0765-.0454.1148-.06991.0418-.02649.0826-.054.1239-.08209a.33143.33143,0,0,0,.0281-.01991c.0362-.025.0719-.05049.1066-.07649l.028-.0219c.0286-.0209.0556-.0429.0832-.0648.0464-.0362.0907-.0745.1356-.11381h.0011l.0525-.04739c.0332-.0291.0648-.0581.0959-.0892.0408-.0393.0801-.0791.1193-.12041.0327-.03469.0653-.06989.0985-.10659l.0326-.0373.0092-.0107.0061-.0066.024-.0281c.0179-.0219.0352-.0438.0536-.0658.0301-.0362.0591-.07391.0877-.1122.0127-.0168.0245-.0336.0372-.05l.0092-.01171c.0087-.01269.0179-.02449.026-.03719.0158-.0209.0301-.0419.0449-.06381a4.17737,4.17737,0,0,0,.3418-.60489,4.10843,4.10843,0,0,0,.2387-.66211c.029-.11479.0571-.23049.0765-.34839l.0061-.03361.0102-.05559.0117-.0898c.0082-.0602.0163-.1229.0199-.1785l.0067-.0857.0035-.0429.0015-.02651V21.9096c.0021-.0607.0041-.1219.0057-.1826l-.0016-.099c-.001-.0331-.001-.0658-.002-.0989l-.0066-.0913-.0072-.09031-.0025-.04539-.0056-.0454c-.0072-.06121-.0143-.1214-.022-.1816-.0209-.1209-.0398-.2413-.0688-.36061-.0133-.05459-.0266-.10919-.0413-.16379-.0128-.0499-.0266-.1004-.0419-.1504l-.0035-.01281-.0164-.052c-.0076-.02189-.0148-.04339-.0219-.06629-.0291-.0882-.0622-.175-.0974-.26171-.023-.05609-.0475-.11169-.0719-.16729l-.0036-.0066c-.024-.0536-.0485-.1066-.075-.15811-.0219-.04489-.0454-.08929-.0694-.13419l-.0005-.001-.0066-.0117c-.0102-.0189-.0209-.0393-.0316-.0582-.0255-.04491-.051-.0892-.0776-.1331l-.0413-.06581c-.029-.04639-.0597-.09279-.0908-.13819-.0428-.06281-.0877-.125-.1331-.1852-.0311-.0418-.0638-.08261-.0964-.1229v-.0005a4.77147,4.77147,0,0,0-.4019-.4346c-.0398-.0393-.0811-.0775-.123-.1158-.0336-.0301-.0683-.0602-.103-.0892a4.71615,4.71615,0,0,0-1.3369-.7855,4.81328,4.81328,0,0,0-.7589-.2148l-.0959-.01831h-.0016c-.0326-.00509-.0647-.01279-.0984-.01639-.0684-.0081-.1357-.0173-.203-.0265l-.1877-.0153-.024-.002-.0306-.0026-.0495-.001-.0984-.0025-.1-.0036-.0199-.0005c-.026,0-.0525.0015-.0796.0015-.0652.0026-.1321.0026-.1984.0051l-.1994.01479c-.0327.00151-.0663.00561-.0995.01021l-.0989.0117q-.2013.0261-.4009.0663c-.0531.0113-.1056.023-.1587.0357-.0117.0036-.0234.0062-.0357.0092q-.0963.02445-.1918.0526c-.0994.029-.1979.0622-.2953.0964-.1127.0403-.2249.0841-.3351.1321v.001l-.0668.0301c-.0199.0081-.0388.0173-.0582.0265l-.0382.0184-.001.0005c-.0199.0092-.0398.0194-.0602.0301a5.53526,5.53526,0,0,0-.6065.3545c-.1229.0836-.2423.1729-.3581.26669l-.001.00211c-.0189.0153-.0372.0311-.0561.0474l-.001.001a5.24032,5.24032,0,0,0-.4739.4479c-.0117.0137-.0244.0275-.0372.0413-.0857.0938-.1678.19129-.2458.2912-.0358.0449-.0709.0903-.1051.1367-.0418.0567-.0827.1138-.1209.1719l-.001.001c-.0082.0113-.0153.022-.022.0332-.0301.0444-.0591.0898-.0872.1357h-.001c-.0699.1127-.1367.2275-.1974.3458a5.0509,5.0509,0,0,0-.279.6406l-.0673.1969-.0582.2-.0138.0505-.0601.253-.0194.102-.0179.103-.002.0061c-.0056.0332-.0107.0648-.0153.0985l-.0276.21319c-.0025.01831-.0035.03471-.0056.05l-.0035.04841-.0082.0974-.0036.0485-.0015.0245-.002.0347-.0026.10349c-.0031.06121-.0046.12241-.0046.18311v.04289h.0015a5.92,5.92,0,0,0,.1796,1.35271,6.3967,6.3967,0,0,0,.2632.7916c.051.1204.1051.23769.1632.3545l.001.001c.0643.1331.1357.26319.2102.3907q.03675.0612.075.1209h.0005c.026.0418.0525.0831.08.1239.0133.0194.0266.0393.0403.05869V25.606c.0883.1316.1816.2581.2796.3821q.10545.1293.2172.2529c.0255.0281.0511.0562.0771.0837.0882.0949.18.1867.2744.2754q.192.17685.3968.3387c.0826.0643.1668.127.2525.18669.0556.04131.1158.07751.1729.11581l.0877.0566c.0301.0189.0602.0352.0903.05359.0163.01021.0337.01991.05.029h.001c.0301.01841.0602.03681.0908.05411l.0021.0005a.38956.38956,0,0,0,.0362.02139l.1851.09641c.0612.0337.1255.0602.1888.0903.0316.01429.0627.0291.0943.0434.0321.0137.0628.0285.0959.0403l.1938.0785c.0648.0235.1311.0464.1969.0679.0327.01219.0653.0239.0985.0341l.0999.02909c.0668.01891.1332.03981.2005.05611l.2025.0485.051.0117.051.0102.102.0184c.1336.028.2785.0443.4208.0627l.026.0036.025.002.0475.0036.0953.0081.0959.0072c.0128.001.0036.001.0352.0025l.0255.0011.051.002.2061.0056.051.0015.051-.001.1031-.0025h.0005c.0704,0,.1846-.0041.2545-.0092l.1545-.0107c.0337-.0031.0684-.0046.102-.0082l.1021-.01221.2025-.02549c.0244-.0036.0489-.0082.0739-.0128.0424-.0061.0852-.0143.128-.0214.0674-.0122.1352-.023.2005-.03831l.1994-.04589c.0332-.00611.0658-.0163.0985-.0255l.0984-.027.1245-.0347c.024-.0066.0479-.0143.0714-.02191l.1923-.06479c.0648-.0199.1285-.0454.1913-.0699.0627-.025.1264-.0484.1887-.075l.1576-.0709.0005-.001.0265-.0107.0929-.0413.2708-.1367c.0388-.0214.077-.0434.1163-.0663l.001-.001a.21718.21718,0,0,0,.0209-.0107c.0118-.0072.0245-.0148.0368-.021.1183-.06371.2295-.1392.3432-.2106q.14925-.0987.2923-.20511a6.6333,6.6333,0,0,0,.6927-.59209c.027-.0266.054-.0531.0806-.0801q.07485-.0765.1484-.1546c.1321-.1438.2581-.2933.3764-.4473.0153-.01991.0311-.0403.0459-.0607.0378-.0495.074-.0995.1097-.15v-.0015c.1204-.1688.2326-.34171.3356-.5203.0179-.0311.0362-.0617.0536-.0928a6.70059,6.70059,0,0,0,.5865-1.4312l.0266-.0918c.0081-.0312.0142-.0618.0219-.0929.0143-.0622.0291-.1239.0434-.1862.0168-.0617.0255-.1244.0377-.1866.0107-.0628.0224-.1245.0337-.1877.0097-.0638.0178-.1301.026-.1949l.002-.01731.0107-.08009c.0041-.0316.0092-.0673.0102-.09391.0056-.05809.0102-.11569.0148-.17289l.0061-.0857.0021-.0219a.31377.31377,0,0,0,.0015-.0362l.002-.0464c.0046-.1066.0072-.2132.0072-.3198a7.39725,7.39725,0,0,0-.0847-1.0778c-.0219-.14131-.0474-.2805-.0775-.4188v-.002c-.0235-.1092-.05-.2178-.078-.3249-.0138-.0531-.0286-.1061-.0439-.15761V19.5724c-.0566-.2004-.1219-.3953-.1959-.5876-.0775-.203-.1632-.4019-.2571-.5947-.0336-.0714-.0688-.1403-.1055-.20961-.0628-.12039-.1291-.23769-.1985-.35349q-.0696-.117-.1438-.23a7.21634,7.21634,0,0,0-.735-.9503c-.0179-.0194-.0362-.0393-.0551-.0587-.0326-.0362-.0668-.0714-.101-.1066a7.28409,7.28409,0,0,0-.5973-.5518c-.0367-.03011-.0739-.0602-.1101-.0893a7.28031,7.28031,0,0,0-.986-.6621l-.001-.001c-.0189-.01071-.0372-.0219-.0561-.0321-.0367-.0199-.073-.0398-.1097-.0592-.1127-.0602-.2265-.1153-.3412-.1683-.2143-.0974-.43-.1842-.6453-.2607-.0464-.0153-.0928-.0311-.1382-.04741l-.0683-.02349-.0704-.0199c-.0929-.0275-.1847-.054-.276-.0805-.1846-.0434-.3667-.0908-.5498-.1209-.126-.0255-.2581-.0429-.3902-.06021h-.001l-.0261-.00359c-.0484-.0066-.0948-.0117-.1412-.01841-.0847-.00709-.1633-.01369-.2444-.01979l-.0601-.0057-.0301-.00151-.0153-.002-.0317-.00209c-.0438-.0005-.0877-.0025-.1305-.0035-.1051-.0041-.2097-.0062-.3132-.0062Zm-2.7763,7.7556h0Z" style="fill:#6e7074"/></g></svg>