<svg id="Objects" xmlns="http://www.w3.org/2000/svg" xmlns:xlink="http://www.w3.org/1999/xlink" viewBox="0 0 221.2119 44.9332"><defs><linearGradient id="Безымянный_градиент_7" y1="22.4668" x2="62.5924" y2="22.4668" gradientUnits="userSpaceOnUse"><stop offset="0" stop-color="#55575c"/><stop offset="0.20377" stop-color="#6a6c70"/><stop offset="0.50744" stop-color="#848589"/><stop offset="0.78205" stop-color="#949598"/><stop offset="1" stop-color="#999a9d"/></linearGradient><linearGradient id="Безымянный_градиент_7-2" x1="49.96136" y1="35.83221" x2="39.59391" y2="8.60542" xlink:href="#Безымянный_градиент_7"/><linearGradient id="Безымянный_градиент_7-3" y1="41.6737" x2="62.5924" y2="41.6737" xlink:href="#Безымянный_градиент_7"/></defs><title>149671-OTYRI1-788</title><path d="M62.5924,44.9332H0L31.2952.0004,62.5924,44.9332M50.1966,38.4595,31.2952,11.3268,12.39771,38.4595H50.1966" style="fill:url(#Безымянный_градиент_7)"/><polygon points="31.298 0.001 31.298 11.327 49.972 38.416 62.766 44.952 31.298 0.001" style="fill:url(#Безымянный_градиент_7-2)"/><polygon points="58.073 38.443 50.185 38.443 50.197 38.459 12.398 38.459 12.43 38.414 4.541 38.414 0 44.933 62.592 44.933 58.073 38.443" style="fill:url(#Безымянный_градиент_7-3)"/><path d="M79.76659,24.93719H75.63573v8.20313H71.92967V11.81219h7.5a8.72944,8.72944,0,0,1,5.69824,1.65625,5.86345,5.86345,0,0,1,2.00684,4.79492,5.99674,5.99674,0,0,1-1.0332,3.584A6.56778,6.56778,0,0,1,83.22362,24.069l4.79,8.88086v.19043H84.04393ZM75.63573,21.9489h3.80859a4.23126,4.23126,0,0,0,2.92969-.94531,3.29246,3.29246,0,0,0,1.05469-2.585,3.51105,3.51105,0,0,0-.97363-2.65137,4.14117,4.14117,0,0,0-2.9082-.9668H75.63573Z" style="fill:#6e7074"/><path d="M118.1162,23.61883h-8.75977v6.5625h10.23926v2.959H105.65038V11.81219h13.84277v2.98828H109.35643v5.88867h8.75977Z" style="fill:#6e7074"/><path d="M143.73632,23.92644l-2.417,2.56348v6.65039h-3.70605V11.81219h3.70605V21.81707l2.05078-2.53418,6.24023-7.4707h4.48242l-7.9248,9.44824,8.37891,11.87988h-4.39453Z" style="fill:#6e7074"/><path d="M179.36132,24.93719h-4.13086v8.20313H171.5244V11.81219h7.5a8.72944,8.72944,0,0,1,5.69824,1.65625,5.86345,5.86345,0,0,1,2.00684,4.79492,5.99674,5.99674,0,0,1-1.0332,3.584,6.56778,6.56778,0,0,1-2.87793,2.22168l4.79,8.88086v.19043h-3.96973Zm-4.13086-2.98828H179.039a4.23126,4.23126,0,0,0,2.92969-.94531,3.29246,3.29246,0,0,0,1.05469-2.585,3.51105,3.51105,0,0,0-.97363-2.65137,4.14117,4.14117,0,0,0-2.9082-.9668h-3.91113Z" style="fill:#6e7074"/><path d="M212.20311,21.91961l4.90723-10.10742h4.10156l-7.14844,13.47656v7.85156h-3.7207V25.28875l-7.16309-13.47656h4.11621Z" style="fill:#6e7074"/></svg>